<svg xmlns="http://www.w3.org/2000/svg" viewBox="0 0 1200 630" preserveAspectRatio="xMidYMid slice">
  <defs>
    <linearGradient id="ogbg" x1="0%" y1="0%" x2="100%" y2="100%">
      <stop offset="0%" stop-color="#0A2540"/>
      <stop offset="50%" stop-color="#003D82"/>
      <stop offset="100%" stop-color="#0057B7"/>
    </linearGradient>
    <linearGradient id="ogcar" x1="0%" y1="0%" x2="0%" y2="100%">
      <stop offset="0%" stop-color="#E8EEF5"/>
      <stop offset="100%" stop-color="#8FA1B3"/>
    </linearGradient>
  </defs>
  <rect width="1200" height="630" fill="url(#ogbg)"/>

  <!-- Logo mark -->
  <g transform="translate(80, 80)">
    <rect x="0" y="0" width="72" height="72" fill="none" stroke="#FFFFFF" stroke-width="2.5"/>
    <text x="36" y="50" text-anchor="middle" font-family="'Outfit',system-ui,sans-serif" font-size="42" font-weight="700" fill="#FFFFFF">S</text>
    <text x="92" y="36" font-family="'Outfit',system-ui,sans-serif" font-size="22" font-weight="600" fill="#FFFFFF" letter-spacing="3">SUISSE CARS</text>
    <text x="92" y="60" font-family="'Outfit',system-ui,sans-serif" font-size="11" font-weight="500" fill="#E8C584" letter-spacing="6" opacity="0.85">PERFORMANCE</text>
  </g>

  <!-- Big headline -->
  <text x="80" y="280" font-family="'Outfit',system-ui,sans-serif" font-size="72" font-weight="200" fill="#FFFFFF" letter-spacing="-2">L'automobile dans sa</text>
  <text x="80" y="360" font-family="'Outfit',system-ui,sans-serif" font-size="72" font-weight="500" fill="#FFFFFF" letter-spacing="-2">forme la plus noble.</text>

  <!-- Services chips -->
  <g transform="translate(80, 440)" font-family="'Outfit',system-ui,sans-serif" font-size="14" font-weight="500" letter-spacing="3" fill="#FFFFFF">
    <rect x="0" y="0" width="160" height="38" fill="none" stroke="#FFFFFF" stroke-width="1.2"/>
    <text x="80" y="25" text-anchor="middle">VENTE</text>
    <rect x="176" y="0" width="200" height="38" fill="none" stroke="#FFFFFF" stroke-width="1.2"/>
    <text x="276" y="25" text-anchor="middle">DÉPANNAGE 24/7</text>
    <rect x="392" y="0" width="190" height="38" fill="none" stroke="#FFFFFF" stroke-width="1.2"/>
    <text x="487" y="25" text-anchor="middle">CARROSSERIE</text>
    <rect x="598" y="0" width="178" height="38" fill="none" stroke="#FFFFFF" stroke-width="1.2"/>
    <text x="687" y="25" text-anchor="middle">MÉCANIQUE</text>
  </g>

  <text x="80" y="560" font-family="'Outfit',system-ui,sans-serif" font-size="18" font-weight="300" fill="#E8EEF5" letter-spacing="4">GENÈVE · SUISSE ROMANDE · +41 78 315 10 40</text>

  <!-- Car silhouette bottom right -->
  <g transform="translate(700, 380) scale(0.45)">
    <path d="M 20 260 Q 40 180 100 160 L 200 140 Q 260 80 360 68 L 680 68 Q 780 80 830 140 L 930 160 Q 990 180 1020 230 L 1020 300 L 20 300 Z"
          fill="url(#ogcar)" opacity="0.9"/>
    <path d="M 230 140 Q 280 90 360 82 L 680 82 Q 760 90 810 140 L 800 200 L 240 200 Z" fill="rgba(10,37,64,0.55)"/>
    <circle cx="180" cy="270" r="68" fill="#0A1020"/>
    <circle cx="180" cy="270" r="28" fill="#E8EEF5"/>
    <circle cx="870" cy="270" r="68" fill="#0A1020"/>
    <circle cx="870" cy="270" r="28" fill="#E8EEF5"/>
  </g>
</svg>
