<svg xmlns="http://www.w3.org/2000/svg" viewBox="0 0 1200 1600" preserveAspectRatio="xMidYMid slice">
  <defs>
    <linearGradient id="bg" x1="0%" y1="0%" x2="0%" y2="100%">
      <stop offset="0%" stop-color="#EEF2F7"/>
      <stop offset="60%" stop-color="#D6DEE8"/>
      <stop offset="100%" stop-color="#1A1A1A"/>
    </linearGradient>
    <linearGradient id="liftBar" x1="0%" y1="0%" x2="0%" y2="100%">
      <stop offset="0%" stop-color="#8FA1B3"/>
      <stop offset="100%" stop-color="#5A6878"/>
    </linearGradient>
  </defs>

  <rect width="1200" height="1600" fill="url(#bg)"/>

  <!-- Ceiling beams -->
  <g stroke="rgba(10,37,64,0.15)" stroke-width="3" fill="none">
    <line x1="0" y1="120" x2="1200" y2="120"/>
    <line x1="0" y1="220" x2="1200" y2="220"/>
    <line x1="200" y1="0" x2="200" y2="320"/>
    <line x1="600" y1="0" x2="600" y2="320"/>
    <line x1="1000" y1="0" x2="1000" y2="320"/>
  </g>

  <!-- Ceiling lights -->
  <g>
    <ellipse cx="300" cy="180" rx="90" ry="18" fill="rgba(255,255,255,0.7)"/>
    <ellipse cx="600" cy="180" rx="90" ry="18" fill="rgba(255,255,255,0.9)"/>
    <ellipse cx="900" cy="180" rx="90" ry="18" fill="rgba(255,255,255,0.7)"/>
  </g>

  <!-- Floor -->
  <rect x="0" y="1200" width="1200" height="400" fill="#1A1A1A"/>
  <g stroke="rgba(255,255,255,0.05)" stroke-width="1">
    <line x1="0" y1="1240" x2="1200" y2="1240"/>
    <line x1="0" y1="1320" x2="1200" y2="1320"/>
    <line x1="0" y1="1400" x2="1200" y2="1400"/>
    <line x1="0" y1="1500" x2="1200" y2="1500"/>
  </g>

  <!-- Two-post lift -->
  <g transform="translate(600, 780)">
    <!-- Base -->
    <rect x="-220" y="420" width="440" height="18" fill="#DA291C" rx="2"/>
    <!-- Left post -->
    <rect x="-260" y="-140" width="40" height="580" fill="url(#liftBar)" rx="3"/>
    <!-- Right post -->
    <rect x="220" y="-140" width="40" height="580" fill="url(#liftBar)" rx="3"/>
    <!-- Top crossbar -->
    <rect x="-260" y="-140" width="520" height="22" fill="#DA291C" rx="2"/>
    <!-- Lift arms (raised, holding car) -->
    <rect x="-200" y="60" width="180" height="14" fill="#5A6878" rx="2"/>
    <rect x="20" y="60" width="180" height="14" fill="#5A6878" rx="2"/>
    <!-- Pads -->
    <circle cx="-110" cy="50" r="18" fill="#1A1A1A"/>
    <circle cx="110" cy="50" r="18" fill="#1A1A1A"/>
  </g>

  <!-- Car on lift (simplified silhouette) -->
  <g transform="translate(600, 760)">
    <path d="M -240 0
             Q -230 -50 -170 -56
             L -70 -70
             Q 0 -110 80 -110
             L 140 -110
             Q 180 -85 220 -56
             L 260 -50
             Q 290 -40 300 0
             L 300 20
             L -240 20
             Z"
          fill="#D6B5B5"/>
    <!-- Windows -->
    <path d="M -120 -65
             Q -60 -100 0 -102
             L 130 -102
             Q 170 -90 200 -65
             L 195 -30
             L -115 -30
             Z"
          fill="rgba(10,37,64,0.6)"/>
  </g>

  <!-- Toolbox -->
  <g transform="translate(160, 1100)">
    <rect x="0" y="0" width="180" height="180" fill="#DA291C" rx="4"/>
    <rect x="0" y="0" width="180" height="40" fill="#B0001A" rx="4"/>
    <rect x="10" y="60" width="160" height="22" fill="#1A1A1A" rx="2"/>
    <rect x="10" y="92" width="160" height="22" fill="#1A1A1A" rx="2"/>
    <rect x="10" y="124" width="160" height="22" fill="#1A1A1A" rx="2"/>
    <circle cx="90" cy="20" r="4" fill="#E8EEF5"/>
  </g>

  <!-- Tire stack -->
  <g transform="translate(960, 1100)">
    <ellipse cx="0" cy="90" rx="90" ry="14" fill="rgba(0,0,0,0.25)"/>
    <g transform="translate(0, 70)">
      <ellipse cx="0" cy="0" rx="80" ry="18" fill="#0A1020"/>
      <ellipse cx="0" cy="-4" rx="80" ry="14" fill="#1a2232"/>
    </g>
    <g transform="translate(0, 40)">
      <ellipse cx="0" cy="0" rx="80" ry="18" fill="#0A1020"/>
      <ellipse cx="0" cy="-4" rx="80" ry="14" fill="#1a2232"/>
    </g>
    <g transform="translate(0, 10)">
      <ellipse cx="0" cy="0" rx="80" ry="18" fill="#0A1020"/>
      <ellipse cx="0" cy="-4" rx="80" ry="14" fill="#1a2232"/>
    </g>
  </g>

  <!-- Corner accents -->
  <g stroke="rgba(218,41,28,0.5)" stroke-width="2" fill="none">
    <path d="M 40 40 L 40 100 M 40 40 L 100 40"/>
    <path d="M 1160 40 L 1160 100 M 1160 40 L 1100 40"/>
  </g>

  <!-- Text -->
  <text x="600" y="90" text-anchor="middle" font-family="'Outfit',system-ui,sans-serif" font-size="18" font-weight="500" letter-spacing="8" fill="rgba(10,37,64,0.5)">ATELIER SUISSE CARS PERFORMANCE</text>
</svg>
